<?xml version="1.0" encoding="utf-8"?>
<!-- Generator: Adobe Illustrator 24.0.2, SVG Export Plug-In . SVG Version: 6.00 Build 0)  -->
<svg version="1.1" id="Layer_1" xmlns="http://www.w3.org/2000/svg" xmlns:xlink="http://www.w3.org/1999/xlink" x="0px" y="0px"
	 viewBox="0 0 391 172.2" style="enable-background:new 0 0 391 172.2;" xml:space="preserve">
<style type="text/css">
	.st0{fill:url(#SVGID_1_);}
	.st1{fill:#FFFFFF;}
	.st2{fill:#FF2215;}
	.st3{fill:none;}
	.st4{fill:url(#SVGID_2_);}
	.st5{fill:#4C4C4C;}
	.st6{fill:#061B27;}
	.st7{fill:#1B5565;}
	.st8{fill:url(#SVGID_3_);}
	.st9{fill:#02A1FD;}
	.st10{font-family:'BauhausStd-Demi';}
	.st11{font-size:34.3118px;}
	.st12{font-family:'BebasKai';}
	.st13{font-size:146.9269px;}
	.st14{fill:url(#SVGID_4_);}
</style>
<g>
	<g>
		<text transform="matrix(1 0 0 1 67.8622 161.2219)" class="st9 st10 st11">SHEIKH</text>
	</g>
	<text transform="matrix(1 0 0 1 6.0182 128.8918)" class="st1 st12 st13">SOHA</text>
	<g>
		<text transform="matrix(1 0 0 1 335.0673 128.0813)" class="st1 st12 st13">L</text>
	</g>
	<path class="st1" d="M293.8,13.4c0,0,3.6-1.4,6,2.6h-0.9C298.9,15.9,296.1,13.4,293.8,13.4z"/>
	<path class="st1" d="M244.7,61.7c0,0,1.1-1.8,1.9-2.4c0,0,0.2,1,0.6,1.4v-1.3l-0.1-1.2l-1.3,0.8l-1.1,1.7L244.7,61.7z"/>
	<g>
		<path class="st9" d="M268.2,111.7c1.4-1.5,2.8-3,4.1-4.4c0,0-0.1-0.1-0.1-0.1c-0.7,0.5-1.5,1-2.2,1.6c-1.7,1.2-3.5,2.4-5.2,3.7
			c-1.1,0.8-2,1.8-2.7,3.1c-0.6,1.1-1.4,2.2-2,3.3c-0.6,1-1,2.1-0.9,3.3c0,0.4,0.1,0.9,0.2,1.3c0.2,0.7,0.7,1.1,1.5,1.1
			c0.6,0,1.2,0.2,1.7,0.6c1,0.7,2.1,0.9,3.3,0.6c2.1-0.5,4.5,0.8,5.3,2.9c-2.4,1.7-4.8,3.2-8.1,2.8c-1.8-0.2-3.7,0-5.6,0
			c-0.4,0-0.8-0.1-1.1-0.3c-1.7-1.3-3.2-2.8-3.8-4.9c-0.4-1.4-0.2-2.8,0.1-4.2c0.3-1.5,0.6-3,0.8-4.5c0.1-0.9-0.1-1.5-0.6-2.3
			c-0.5,0.5-0.5,0.5-0.5,2.5c-0.6-0.5-0.8-1.1-1-1.8c-0.4-2.1,0-4,1.8-5.4c2.4-1.8,3.7-4.2,4.4-7c0.3-1.4,0.3-2.8-0.1-4.1
			c-1.1-3.5-0.7-6.9,0.9-10.2c0-0.1,0-0.1,0.1-0.4c-0.3,0.2-0.5,0.4-0.7,0.6c-2.1,1.7-4.4,3-7.2,3.3c-5.3,0.5-9.2-3.4-8.7-8.8
			c0.4-3.8,2.3-6.9,4.8-9.7c2.2-2.4,5-4.2,7.7-6.1c2.1-1.5,4.3-3,6-5c1.4-1.7,2.4-3.6,2.6-5.8c0.3-3.8-2.5-7-6.5-7.5
			c-0.2,0-0.5,0-0.7-0.1c-1.7-0.1-1.8-0.1-2.4,1.6c-0.7,1.9-1.7,3.4-3.4,4.5c-1.5,0.9-2.4,2.4-2.7,4.2c-0.1-0.6-0.2-1.1-0.3-1.7
			c-1,0.9-2.1,1.7-2.3,3.2c-0.8-2.3-0.7-4.6,0-6.9c1.4-4,4.3-6,8.3-6.7c2.1-0.3,4.1-0.3,6.1,0.3c4.5,1.4,6.8,4.9,6.4,9.6
			c-0.3,3.4-1.7,6.3-4.2,8.6c-2.3,2.2-4.9,4.2-7.4,6.2c-2,1.6-4.1,3.3-5.5,5.5c-1.2,1.9-1.8,4-1.3,6.3c0.5,2.4,2.5,3.4,4.7,2.2
			c1.5-0.9,3-1.9,4.4-3c0.5-0.3,0.9-0.8,1.1-1.3c2.5-4.6,6.2-7.7,10.9-9.8c1.3-0.6,2.5-1.3,3.7-2.1c2.5-1.6,4-3.9,5.1-6.6
			c0.7-1.8,1.6-3.5,2.5-5.3c1.7-3.4,1.9-7,0.5-10.6c0-0.1-0.1-0.1-0.2-0.2c0,1.1-0.3,2.1-0.9,2.9c-0.6,0.8-1.4,1.4-2.4,1.8
			c2-2.4,1.3-5,0.5-7.6c-0.7-2.4-1.4-4.8-1.1-7.5c-0.6,0.9-1.1,1.7-1.7,2.4c-0.6,0.8-1.2,1.4-2.3,1.9c1.1-1.2,1.2-2.6,1.5-4
			c0.3-2.1,0.6-4.2,1-6.3c0.3-1.7,1-3.3,2-4.7c0-0.1,0.1-0.1,0.2-0.3c-1.6,0.7-3,1.7-4.7,1c1.6-0.3,2.7-1.2,3.6-2.3
			c1.1-1.3,2.1-2.7,3.2-4c2.7-3.2,6.3-5.1,10.4-5.8c1-0.2,2.1-0.3,3.1-0.3c1.5,0,2.9,0.3,4.3,1.1c-0.5-1.5-1.5-2.4-3-2.7
			c2.6-0.6,4.1,0.1,5.3,2.5c1.2,0,2.3,0.1,3.5,0.1c0.2,0,0.5,0,0.7,0.1c1.8,0.7,3.5,0.7,5.3-0.2c0.4-0.2,0.9-0.1,1.3-0.1
			c-0.2,0.7-0.7,1.3-0.5,1.7c0.2,0.4,0.9,0.7,1.4,1c0-0.1,0.1-0.1,0.1-0.2c-0.1-0.1-0.2-0.1-0.3-0.2c-0.8-0.6-0.8-0.8-0.2-1.6
			c0.5-0.6,1.2-0.5,1.5,0.2c0.2,0.5,0.5,0.8,0.9,1.1c0.6,0.4,1.2,0.9,1.7,1.5c0.7,0.8,0.7,2.5,0.1,3.4c-0.2,0.4-0.3,0.8-0.5,1.2
			c-0.2,0.4-0.3,0.8-0.5,1.2c-0.1,0-0.1,0-0.2-0.1c0-0.5-0.1-0.9-0.1-1.5c-0.3,0.2-0.5,0.3-0.7,0.4c-0.3,0.1-0.6,0.2-0.8,0.1
			c-0.5-0.2-1-0.1-1.4,0.2c-1,0.6-1.5,2.1-1,3.1c0.3,0.7,0.9,1.2,1.6,1c0.6-0.1,1.2-0.5,1.8-0.8c0.2-0.1,0.3-0.4,0.3-0.6
			c0-0.4,0-0.8,0-1.4c0.3,0.4,0.5,0.7,0.7,1c0.2-0.2,0.4-0.4,0.6-0.5c0.6,0.7,1.2,1.5,1.7,2.2c0.1,0.2,0.2,0.4,0.2,0.7
			c-0.2,1-0.3,2-0.6,3c-0.2,0.7-0.5,0.8-1.2,0.6c-1.1-0.3-2.1-0.2-3.1,0.2c-0.7,0.3-0.9,0.6-1,1.5c-0.2-0.1-0.4-0.1-0.6-0.2
			c-0.1,1.1,0.6,1.7,1.2,2.2c0.9,0.8,1.9,1.4,3.1,1.6c0.8,0.1,1.4,0.7,1.8,1.3c-0.7,0-1.4-0.1-2,0c-0.4,0-0.9,0.4-0.9,0.6
			c-0.1,0.3,0.2,0.8,0.5,1c1.2,0.9,2.5,1.6,3.8,2.4c0.5,0.3,1.1,0.6,1.6,0.9c-0.4,0.3-0.8,0.5-1.2,0.8c1.3,0.9,2,2.1,2.2,3.6
			c0.1,0.4,0.3,0.5,0.7,0.4c0.1,0,0.2-0.1,0.2-0.1c3.9-2.3,7.7-4.6,10.8-7.9c1.2-1.2,2.4-2.3,3.9-3.1c1.1-0.6,1.9-1.6,2.6-2.7
			c1-1.7,2.4-2.8,4.5-2.7c1.5,0.1,2.5,1.6,1.9,2.9c-0.4-0.6-0.9-1.1-1.6-0.9c-0.8,0.2-1.3,0.8-1.9,1.7c0.5-0.3,0.8-0.6,1.2-0.8
			c0.7-0.4,1.4-0.3,1.9,0.1c0.5,0.5,0.7,1.4,0.3,2c-0.1,0.2-0.5,0.3-0.7,0.2c-1.2-0.2-2,0-2.7,0.7c1.1-0.4,2.1-0.5,2.9,0.4
			c0.5,0.6,0.6,1.1,0.1,1.8c-0.8-0.6-1.4,0-1.8,0.6c-1.3,1.7-2.9,2.5-5.1,2.4c-0.4,0-0.9,0.3-1.2,0.5c-0.4,0.3-0.6,0.7-0.9,1.1
			c-1.3,2-2.6,4-3.9,6.1c-0.7,1.2-1.4,2.5-2.1,3.8c-0.1,0.2-0.1,0.5-0.2,1c0.9-0.3,1.5-0.9,1.9-1.6c0.1,1.6-1.6,3.4-3.3,3.5
			c-1.6,0.2-3.3,0.3-4.9,0.7c-1.4,0.3-2.4,1.2-3.2,2.3c-0.2,0.3-0.5,0.5-0.7,0.7c-0.9,0.5-1.6,0-1.5-1c0-0.8,0.1-1.6,0.2-2.4
			c0.1-3,0.1-5.9-0.8-8.8c-0.2-0.5-0.4-1-0.8-1.5c0,0.1,0,0.3,0.1,0.4c1,4.4,1.2,8.8,0.6,13.3c-0.1,1-0.4,2-1.1,2.7
			c1.6,1.2,3.3,1.4,5.1,0.8c2-0.7,3.7-1.8,5.5-3c0.5-0.3,1.1-0.6,1.6-0.7c0.9-0.3,1.9-0.4,2.8-0.6c2-0.5,3.8-1.5,5.4-2.8
			c1.3-1,2.7-1.1,4.2-0.9c0.3,0.1,0.7,0.2,1,0.4c1.2,0.8,1.2,2.2-0.1,2.9c-0.7-1.6-2-1.7-3.5-0.3c0.5-0.1,1-0.3,1.5-0.4
			c0.8-0.1,1.4,0.2,1.6,0.9c0.2,0.6,0,1.6-0.5,2c-0.1,0.1-0.5,0-0.7,0c-0.9-0.5-1.8-0.6-2.7-0.2c0.1,0,0.3,0,0.4,0
			c1.1,0.1,2,0.5,2.6,1.5c0.3,0.5,0.1,0.8-0.5,1c-0.9,0.3-1.8,0.6-2.6,1c-0.7,0.4-1.4,0.5-2.1,0.5c-0.2,0-0.4,0-0.6,0
			c-2.2-0.6-3.9,0.3-5.4,1.7c-0.9,0.8-1.8,1.7-2.7,2.6c-1.3,1.4-2.6,2.8-3.9,4.1c-0.6,0.6-0.5,0.9,0.3,1.3c-1.1,0.8-1.9-0.3-2.9-0.2
			c-1.3,0.1-1.6-1.1-2.4-1.8c0.1,0.8,0.2,1.4,0.3,2.1c-1.3-1.8-3.2-1.9-5.1-1.8c-3.6,0.2-7.3,0.1-10.9-0.4c-1.2-0.2-2.4-0.5-3.6-0.8
			c1.1,0.6,2.1,1.1,3.3,1.3c1.2,0.2,2.4,0.4,3.5,0.5c1.2,0.1,2.4,0.1,3.8,0.2c-0.9,1.5-1.7,2.9-2.6,4.2c-2.7,3.9-6.4,6.3-10.8,7.9
			c-2.1,0.8-4.3,1.4-6.4,2.2c-2.5,0.9-4.6,2.4-5.6,5c-2,5.4-5.3,9.9-9.3,14c-1.3,1.3-2.7,2.5-4.5,3.2c-0.1,0-0.3,0.1-0.4,0.1
			C268.3,111.8,268.3,111.7,268.2,111.7z M311.9,58.6c-0.1,0-0.2,0.1-0.3,0.1c0.7,2.1,1.7,3.9,3.4,5.4C314,62.3,313,60.4,311.9,58.6
			z"/>
		<path class="st9" d="M280.7,112c-0.1-0.6-0.1-1.7-0.2-2.6c-0.2-1-0.4-2-0.8-2.9c-0.3-0.7-0.9-1.2-1.4-1.7c1-1.3,2.2-2.6,3-4.2
			c0.9-1.6,1.7-3.4,2.2-5.2c0.8-2.7,2.5-4.5,5.1-5.5c2.2-0.8,4.5-1.5,6.9-2.2c-0.5,2.7,0.7,4.7,1.7,6.7c0.7,1.5,1.4,3,1.4,4.8
			c0,1.1-0.3,2.2-1.1,3.2c-0.1-1.1-0.4-1.9-1.4-2.5c-0.5,0.8-1.1,1.5-1.5,2.3c-1,1.9-2,3.9-3,5.9c-0.3,0.6-0.2,1.2,0.1,1.8
			c1.3,2.5,3.3,4.3,5.6,5.7c1.1,0.7,2.3,1.2,3.5,1.7c0.7,0.3,1.4,0.3,2.1,0.4c0.5,0.1,1.1,0.2,1.5,0.5c0.9,0.6,1.8,1.1,3,1.1
			c1,0,1.8,0.5,2.5,1.2c0.7,0.7,0.8,1.6,0.2,2.4c-1,1.2-2.3,1.7-3.8,1.8c-1.6,0.1-3.1,0.1-4.7,0.1c-1.1,0-2.1-0.4-3-1.1
			c-0.5-0.4-1.2-0.5-1.8-0.7c-0.5-0.2-0.9-0.4-1.3-0.9c-0.8-1.2-2.1-2-3.4-2.5c-2.2-0.8-4.4-1.5-6.5-2.3c-0.8-0.3-1.5-0.6-2.4-0.9
			c0.1,0.5,0.1,1,0.2,1.4c0.1,0.4,0.4,0.8,0.6,1.2c-1.5-0.4-2.4-1.6-2.3-3.2c0-2.2,0.9-4.2,2.1-6c1.1-1.5,2.3-3,3.3-4.6
			c0.6-0.9,1.1-1.8,1.6-2.7c0.2-0.4,0.2-0.9,0.3-1.4c-0.6,0.9-1,2-1.7,2.8c-1.3,1.7-2.7,3.4-4.1,5.1
			C282.3,110,281.4,111.1,280.7,112z"/>
	</g>
	<g>
		<g>
			
				<radialGradient id="SVGID_1_" cx="314.4564" cy="24.3799" r="1.9801" gradientTransform="matrix(7.268064e-02 -0.9974 0.9974 7.268064e-02 253.0421 330.9254)" gradientUnits="userSpaceOnUse">
				<stop  offset="0" style="stop-color:#000000"/>
				<stop  offset="1" style="stop-color:#1A1A1A"/>
			</radialGradient>
			<path class="st0" d="M302.2,17.1c-0.8,0.4-1.6,0.7-2.1,1.5c0.5,0,1-0.2,1.6,0c-1.4,0.5-2.6,1.2-3.4,2.4
				C297.9,19.1,299.2,17.2,302.2,17.1z"/>
		</g>
	</g>
	<path class="st1" d="M296.8,16.1c-5.7-1.5-8.9,0-11.4,1c-2.7,1.1-6.3,4.5-8.6,6.8c1.3-2.3,4.3-5.3,6.6-6.6
		C291.4,12.6,296.6,16,296.8,16.1z"/>
</g>
</svg>
